0
SECTION
2
HEADER
9
$INSUNITS
70
4
9
$ACADVER
1
AC1014
9
$HANDSEED
5
FFFF
0
ENDSEC
0
SECTION
2
TABLES
0
TABLE
2
VPORT
5
8
100
AcDbSymbolTable
0
ENDTAB
0
TABLE
2
LTYPE
5
5
100
AcDbSymbolTable
0
LTYPE
5
14
100
AcDbSymbolTableRecord
100
AcDbLinetypeTableRecord
2
BYBLOCK
70
0
0
LTYPE
5
15
100
AcDbSymbolTableRecord
100
AcDbLinetypeTableRecord
2
BYLAYER
70
0
0
ENDTAB
0
TABLE
2
LAYER
5
2
100
AcDbSymbolTable
70
2
0
LAYER
5
50
100
AcDbSymbolTableRecord
100
AcDbLayerTableRecord
2
0
70
0
6
CONTINUOUS
0
ENDTAB
0
TABLE
2
STYLE
5
3
100
AcDbSymbolTable
70
1
0
STYLE
5
11
100
AcDbSymbolTableRecord
100
AcDbTextStyleTableRecord
2
STANDARD
70
0
0
ENDTAB
0
TABLE
2
VIEW
5
6
100
AcDbSymbolTable
70
0
0
ENDTAB
0
TABLE
2
UCS
5
7
100
AcDbSymbolTable
70
0
0
ENDTAB
0
TABLE
2
APPID
5
9
100
AcDbSymbolTable
70
2
0
APPID
5
12
100
AcDbSymbolTableRecord
100
AcDbRegAppTableRecord
2
ACAD
70
0
0
ENDTAB
0
TABLE
2
DIMSTYLE
5
A
100
AcDbSymbolTable
70
1
0
ENDTAB
0
TABLE
2
BLOCK_RECORD
5
1
100
AcDbSymbolTable
70
1
0
BLOCK_RECORD
5
1F
100
AcDbSymbolTableRecord
100
AcDbBlockTableRecord
2
*MODEL_SPACE
0
BLOCK_RECORD
5
1B
100
AcDbSymbolTableRecord
100
AcDbBlockTableRecord
2
*PAPER_SPACE
0
ENDTAB
0
ENDSEC
0
SECTION
2
BLOCKS
0
BLOCK
5
20
100
AcDbEntity
100
AcDbBlockBegin
2
*MODEL_SPACE
0
ENDBLK
5
21
100
AcDbEntity
100
AcDbBlockEnd
0
BLOCK
5
1C
100
AcDbEntity
100
AcDbBlockBegin
2
*PAPER_SPACE
0
ENDBLK
5
1D
100
AcDbEntity
100
AcDbBlockEnd
0
ENDSEC
0
SECTION
2
ENTITIES
0
SPLINE
5
100
100
AcDbEntity
8
0
100
AcDbSpline
70
0
71
3
72
10
73
6
74
0
42
0.000000001
43
0.0000000001
44
0.0000000001
40
0
40
0
40
0
40
0
40
0.068846665623801984
40
0.068846665623801984
40
0.13769333124760019
40
0.13769333124760019
40
0.13769333124760019
40
0.13769333124760019
10
76.980729738303239
20
-108.22554533955409
30
3.5527136788005009e-14
10
77.063408791852609
20
-108.43962318201362
30
4.4408920985006262e-14
10
77.121251234318734
20
-108.66248275300065
30
3.5527136788005009e-14
10
77.184991270066917
20
-109.11701306217113
30
3.5527136788005009e-14
10
77.190678885514131
20
-109.34718644803814
30
3.5527136788005009e-14
10
77.170072414618986
20
-109.57574830374725
30
4.4408920985006262e-14
0
SPLINE
5
101
100
AcDbEntity
8
0
100
AcDbSpline
70
4
71
2
72
6
73
3
74
0
42
0.000000001
43
0.0000000001
44
0.0000000001
40
-2.2420173496323774
40
-2.2420173496323774
40
-2.2420173496323774
40
-0.17229550596703402
40
-0.17229550596703402
40
-0.17229550596703402
41
0.89084718637758353
41
0.28562340185771284
41
0.89084718637757887
10
76.980729738303239
20
-108.2255453395541
30
5.3290705182007514e-14
10
72.520879669277917
20
-96.677819047551253
30
3.5527136788005009e-14
10
76.980729738303211
20
-85.130092755548219
30
2.6645352591003754e-14
0
SPLINE
5
102
100
AcDbEntity
8
0
100
AcDbSpline
70
0
71
3
72
10
73
6
74
0
42
0.000000001
43
0.0000000001
44
0.0000000001
40
0
40
0
40
0
40
0
40
0.068846665623796197
40
0.068846665623796197
40
0.13769333124759636
40
0.13769333124759636
40
0.13769333124759636
40
0.13769333124759636
10
77.170072414618971
20
-83.779889791355103
30
3.5527136788005009e-14
10
77.190678885514131
20
-84.00845164706422
30
4.4408920985006262e-14
10
77.184991270066888
20
-84.238625032931225
30
3.5527136788005009e-14
10
77.12125123431872
20
-84.693155342101676
30
3.5527136788005009e-14
10
77.063408791852609
20
-84.916014913088702
30
3.5527136788005009e-14
10
76.980729738303239
20
-85.130092755548219
30
3.5527136788005009e-14
0
ARC
5
103
100
AcDbEntity
8
0
100
AcDbCircle
10
67.210467822086443
20
-84.677818719725551
30
3.5527136788005009e-14
40
9.9999999999999805
210
-3.239929454950051e-17
220
3.5936492588074297e-16
230
1
100
AcDbArc
50
5.1516924836383655
51
90.000000000000099
0
LINE
5
104
100
AcDbEntity
8
0
100
AcDbLine
10
67.210467822086429
20
-74.677818719725565
30
3.1907007336536938e-14
11
-11.789532177913609
21
-74.677818719725565
31
3.5527136788005009e-14
0
ARC
5
105
100
AcDbEntity
8
0
100
AcDbCircle
10
-11.789532177913603
20
-84.677818719725593
30
3.5527136788005009e-14
40
10.000000000000018
210
1.6023737137301774e-31
220
7.1159687641494364e-47
230
1
100
AcDbArc
50
90.000000000000043
51
174.8483075163613
0
SPLINE
5
106
100
AcDbEntity
8
0
100
AcDbSpline
70
0
71
3
72
10
73
6
74
0
42
0.000000001
43
0.0000000001
44
0.0000000001
40
0
40
0
40
0
40
0
40
0.068846665623797959
40
0.068846665623797959
40
0.13769333124759819
40
0.13769333124759819
40
0.13769333124759819
40
0.13769333124759819
10
-21.55979409413041
20
-85.130092755548191
30
3.5527136788005009e-14
10
-21.642473147679773
20
-84.916014913088674
30
3.5527136788005009e-14
10
-21.700315590145905
20
-84.693155342101647
30
4.4408920985006262e-14
10
-21.764055625894073
20
-84.238625032931196
30
3.5527136788005009e-14
10
-21.769743241341306
20
-84.008451647064177
30
3.5527136788005009e-14
10
-21.74913677044615
20
-83.77988979135506
30
3.5527136788005009e-14
0
SPLINE
5
107
100
AcDbEntity
8
0
100
AcDbSpline
70
4
71
2
72
6
73
3
74
0
42
0.000000001
43
0.0000000001
44
0.0000000001
40
0.1722955059670318
40
0.1722955059670318
40
0.1722955059670318
40
2.2420173496323752
40
2.2420173496323752
40
2.2420173496323752
41
0.89084718637758042
41
0.2856234018577129
41
0.8908471863775822
10
-21.559794094130403
20
-85.130092755548191
30
1.7763568394002505e-14
10
-17.09994402510512
20
-96.677819047551139
30
3.5527136788005009e-14
10
-21.55979409413041
20
-108.22554533955403
30
4.4408920985006268e-14
0
SPLINE
5
108
100
AcDbEntity
8
0
100
AcDbSpline
70
0
71
3
72
10
73
6
74
0
42
0.000000001
43
0.0000000001
44
0.0000000001
40
0
40
0
40
0
40
0
40
0.068846665623801026
40
0.068846665623801026
40
0.1376933312475967
40
0.1376933312475967
40
0.1376933312475967
40
0.1376933312475967
10
-21.74913677044615
20
-109.57574830374719
30
5.3290705182007514e-14
10
-21.769743241341306
20
-109.34718644803807
30
3.5527136788005009e-14
10
-21.764055625894084
20
-109.11701306217104
30
3.5527136788005009e-14
10
-21.700315590145912
20
-108.66248275300059
30
4.4408920985006262e-14
10
-21.642473147679773
20
-108.43962318201358
30
4.4408920985006262e-14
10
-21.55979409413041
20
-108.22554533955406
30
3.5527136788005009e-14
0
ARC
5
109
100
AcDbEntity
8
0
100
AcDbCircle
10
-11.789532177913603
20
-108.6778193753767
30
3.5527136788005009e-14
40
9.9999999999999982
210
1.7367818790172314e-15
220
5.1886914520136981e-16
230
1
100
AcDbArc
50
185.15169248363864
51
270
0
LINE
5
110
100
AcDbEntity
8
0
100
AcDbLine
10
-11.789532177913603
20
-118.6778193753767
30
3.9148823897864891e-14
11
67.210467822086429
21
-118.6778193753767
31
5.3290705182007514e-14
0
ARC
5
111
100
AcDbEntity
8
0
100
AcDbCircle
10
67.210467822086429
20
-108.67781937537669
30
4.4408920985006262e-14
40
10.000000000000018
210
-0
220
8.8817841970012365e-16
230
1
100
AcDbArc
50
270
51
354.84830751636093
0
CIRCLE
5
112
100
AcDbEntity
8
0
100
AcDbCircle
10
71.210467822086414
20
-81.677819047551083
30
3.5527136788005009e-14
40
1.5000000000000033
210
0
220
3.3306690738754696e-16
230
1
0
CIRCLE
5
113
100
AcDbEntity
8
0
100
AcDbCircle
10
66.7104678220864
20
-96.67781904755104
30
3.5527136788005009e-14
40
1.7500000000000071
210
0
220
3.3306690738754696e-16
230
1
0
CIRCLE
5
114
100
AcDbEntity
8
0
100
AcDbCircle
10
-15.789532177913603
20
-81.677819047551111
30
3.5527136788005009e-14
40
1.5000000000000033
210
0
220
3.3306690738754696e-16
230
1
0
CIRCLE
5
115
100
AcDbEntity
8
0
100
AcDbCircle
10
-11.289532177913602
20
-96.677819047551083
30
4.4408920985006262e-14
40
1.7499999999999893
210
0
220
3.6082248300317588e-16
230
1
0
LWPOLYLINE
5
116
100
AcDbEntity
8
0
100
AcDbPolyline
90
8
70
1
43
0.0
10
-4.7895321779135944
20
-76.677819047551125
42
0.41421356237309498
10
-7.7895321779135944
20
-79.677819047551125
10
-7.7895321779136051
20
-113.67781904755111
42
0.41421356237309503
10
-4.789532177913598
20
-116.67781904755111
10
60.210467822086422
20
-116.67781904755108
42
0.41421356237309503
10
63.210467822086414
20
-113.67781904755108
10
63.210467822086429
20
-79.677819047551083
42
0.41421356237309503
10
60.210467822086422
20
-76.677819047551068
0
CIRCLE
5
117
100
AcDbEntity
8
0
100
AcDbCircle
10
-15.789532177913577
20
-111.67781904755111
30
5.3290705182007514e-14
40
1.5000000000000033
210
0
220
3.3306690738754696e-16
230
1
0
CIRCLE
5
118
100
AcDbEntity
8
0
100
AcDbCircle
10
71.210467822086429
20
-111.67781904755105
30
4.4408920985006262e-14
40
1.5000000000000033
210
0
220
3.3306690738754696e-16
230
1
0
ENDSEC
0
SECTION
2
OBJECTS
0
DICTIONARY
5
C
100
AcDbDictionary
3
ACAD_GROUP
350
D
3
ACAD_MLINESTYLE
350
17
0
DICTIONARY
5
D
100
AcDbDictionary
0
DICTIONARY
5
1A
330
C
100
AcDbDictionary
0
DICTIONARY
5
17
100
AcDbDictionary
0
ENDSEC
0
EOF
