0
SECTION
2
HEADER
9
$INSUNITS
70
4
9
$ACADVER
1
AC1014
9
$HANDSEED
5
FFFF
0
ENDSEC
0
SECTION
2
TABLES
0
TABLE
2
VPORT
5
8
100
AcDbSymbolTable
0
ENDTAB
0
TABLE
2
LTYPE
5
5
100
AcDbSymbolTable
0
LTYPE
5
14
100
AcDbSymbolTableRecord
100
AcDbLinetypeTableRecord
2
BYBLOCK
70
0
0
LTYPE
5
15
100
AcDbSymbolTableRecord
100
AcDbLinetypeTableRecord
2
BYLAYER
70
0
0
ENDTAB
0
TABLE
2
LAYER
5
2
100
AcDbSymbolTable
70
2
0
LAYER
5
50
100
AcDbSymbolTableRecord
100
AcDbLayerTableRecord
2
0
70
0
6
CONTINUOUS
0
ENDTAB
0
TABLE
2
STYLE
5
3
100
AcDbSymbolTable
70
1
0
STYLE
5
11
100
AcDbSymbolTableRecord
100
AcDbTextStyleTableRecord
2
STANDARD
70
0
0
ENDTAB
0
TABLE
2
VIEW
5
6
100
AcDbSymbolTable
70
0
0
ENDTAB
0
TABLE
2
UCS
5
7
100
AcDbSymbolTable
70
0
0
ENDTAB
0
TABLE
2
APPID
5
9
100
AcDbSymbolTable
70
2
0
APPID
5
12
100
AcDbSymbolTableRecord
100
AcDbRegAppTableRecord
2
ACAD
70
0
0
ENDTAB
0
TABLE
2
DIMSTYLE
5
A
100
AcDbSymbolTable
70
1
0
ENDTAB
0
TABLE
2
BLOCK_RECORD
5
1
100
AcDbSymbolTable
70
1
0
BLOCK_RECORD
5
1F
100
AcDbSymbolTableRecord
100
AcDbBlockTableRecord
2
*MODEL_SPACE
0
BLOCK_RECORD
5
1B
100
AcDbSymbolTableRecord
100
AcDbBlockTableRecord
2
*PAPER_SPACE
0
ENDTAB
0
ENDSEC
0
SECTION
2
BLOCKS
0
BLOCK
5
20
100
AcDbEntity
100
AcDbBlockBegin
2
*MODEL_SPACE
0
ENDBLK
5
21
100
AcDbEntity
100
AcDbBlockEnd
0
BLOCK
5
1C
100
AcDbEntity
100
AcDbBlockBegin
2
*PAPER_SPACE
0
ENDBLK
5
1D
100
AcDbEntity
100
AcDbBlockEnd
0
ENDSEC
0
SECTION
2
ENTITIES
0
CIRCLE
5
100
100
AcDbEntity
8
0
100
AcDbCircle
10
-148.75056079961499
20
-152.56503466245545
30
0
40
6.5000000000000018
210
0
220
0
230
1
0
CIRCLE
5
101
100
AcDbEntity
8
0
100
AcDbCircle
10
-124.00537253748149
20
-149.004745647281
30
0
40
4.2500000000000018
210
0
220
0
230
1
0
CIRCLE
5
102
100
AcDbEntity
8
0
100
AcDbCircle
10
-95.856506009274369
20
-142.03041319340568
30
0
40
4.2500000000000018
210
0
220
0
230
1
0
CIRCLE
5
103
100
AcDbEntity
8
0
100
AcDbCircle
10
-69.355714690382612
20
-130.25297461481176
30
0
40
4.2500000000000018
210
0
220
0
230
1
0
CIRCLE
5
104
100
AcDbEntity
8
0
100
AcDbCircle
10
-50.337459672924687
20
-114.02626896976673
30
0
40
6.5000000000000018
210
0
220
0
230
1
0
CIRCLE
5
105
100
AcDbEntity
8
0
100
AcDbCircle
10
5.4565000798797403
20
-121.98778479092357
30
0
40
4.1649999999999929
210
0
220
0
230
1
0
CIRCLE
5
106
100
AcDbEntity
8
0
100
AcDbCircle
10
-91.010991885014434
20
-110.67113177387699
30
0
40
4.1649999999999929
210
0
220
0
230
1
0
CIRCLE
5
107
100
AcDbEntity
8
0
100
AcDbCircle
10
-193.85308509990074
20
-143.63849935326468
30
0
40
4.1649999999999929
210
0
220
0
230
1
0
CIRCLE
5
108
100
AcDbEntity
8
0
100
AcDbCircle
10
-94.310227441689847
20
-162.44785357817105
30
0
40
4.1650000000000018
210
0
220
0
230
1
0
CIRCLE
5
109
100
AcDbEntity
8
0
100
AcDbCircle
10
5.4565000798797403
20
-121.98778479092357
30
0
40
2.0499999999999998
210
0
220
0
230
1
0
CIRCLE
5
110
100
AcDbEntity
8
0
100
AcDbCircle
10
-94.310227441689847
20
-162.44785357817105
30
0
40
2.0499999999999834
210
0
220
0
230
1
0
CIRCLE
5
111
100
AcDbEntity
8
0
100
AcDbCircle
10
-91.010991885014434
20
-110.67113177387699
30
0
40
2.0500000000000047
210
0
220
0
230
1
0
CIRCLE
5
112
100
AcDbEntity
8
0
100
AcDbCircle
10
-193.85308509990074
20
-143.63849935326468
30
0
40
2.0499999999999834
210
0
220
0
230
1
0
CIRCLE
5
113
100
AcDbEntity
8
0
100
AcDbCircle
10
-193.85308509990074
20
-143.63849935326468
30
0
40
3.6499999999999999
210
0
220
0
230
1
0
CIRCLE
5
114
100
AcDbEntity
8
0
100
AcDbCircle
10
-94.310227441689847
20
-162.44785357817105
30
0
40
3.6500000000000048
210
0
220
0
230
1
0
CIRCLE
5
115
100
AcDbEntity
8
0
100
AcDbCircle
10
-91.010991885014434
20
-110.67113177387699
30
0
40
3.6500000000000057
210
0
220
0
230
1
0
CIRCLE
5
116
100
AcDbEntity
8
0
100
AcDbCircle
10
5.4565000798797403
20
-121.98778479092357
30
0
40
3.649999999999987
210
0
220
0
230
1
0
SPLINE
5
117
100
AcDbEntity
8
0
100
AcDbSpline
70
4
71
5
72
96
73
90
74
0
42
0.000000001
43
0.0000000001
44
0.0000000001
40
0
40
0
40
0
40
0
40
0
40
0
40
0.011764705882352941
40
0.023529411764705882
40
0.035294117647058823
40
0.047058823529411764
40
0.058823529411764705
40
0.070588235294117646
40
0.082352941176470587
40
0.094117647058823528
40
0.10588235294117647
40
0.11764705882352941
40
0.12941176470588234
40
0.14117647058823529
40
0.15294117647058825
40
0.1647058823529412
40
0.17647058823529416
40
0.18823529411764711
40
0.20000000000000007
40
0.21176470588235302
40
0.22352941176470598
40
0.23529411764705893
40
0.24705882352941189
40
0.25882352941176484
40
0.2705882352941178
40
0.28235294117647075
40
0.29411764705882371
40
0.30588235294117666
40
0.31764705882352962
40
0.32941176470588257
40
0.34117647058823553
40
0.35294117647058848
40
0.36470588235294144
40
0.37647058823529439
40
0.38823529411764734
40
0.4000000000000003
40
0.41176470588235325
40
0.42352941176470621
40
0.43529411764705916
40
0.44705882352941212
40
0.45882352941176507
40
0.47058823529411803
40
0.48235294117647098
40
0.49411764705882394
40
0.50588235294117689
40
0.51764705882352979
40
0.52941176470588269
40
0.54117647058823559
40
0.55294117647058849
40
0.56470588235294139
40
0.57647058823529429
40
0.58823529411764719
40
0.60000000000000009
40
0.61176470588235299
40
0.62352941176470589
40
0.63529411764705879
40
0.64705882352941169
40
0.65882352941176459
40
0.67058823529411749
40
0.68235294117647038
40
0.69411764705882328
40
0.70588235294117618
40
0.71764705882352908
40
0.72941176470588198
40
0.74117647058823488
40
0.75294117647058778
40
0.76470588235294068
40
0.77647058823529358
40
0.78823529411764648
40
0.79999999999999938
40
0.81176470588235228
40
0.82352941176470518
40
0.83529411764705808
40
0.84705882352941098
40
0.85882352941176388
40
0.87058823529411677
40
0.88235294117646967
40
0.89411764705882257
40
0.90588235294117547
40
0.91764705882352837
40
0.92941176470588127
40
0.94117647058823417
40
0.95294117647058707
40
0.96470588235293997
40
0.97647058823529287
40
0.98823529411764577
40
1
40
1
40
1
40
1
40
1
40
1
41
1
41
1
41
1
41
1
41
1
41
1
41
1
41
1
41
1
41
1
41
1
41
1
41
1
41
1
41
1
41
1
41
1
41
1
41
1
41
1
41
1
41
1
41
1
41
1
41
1
41
1
41
1
41
1
41
1
41
1
41
1
41
1
41
1
41
1
41
1
41
1
41
1
41
1
41
1
41
1
41
1
41
1
41
1
41
1
41
1
41
1
41
1
41
1
41
1
41
1
41
1
41
1
41
1
41
1
41
1
41
1
41
1
41
1
41
1
41
1
41
1
41
1
41
1
41
1
41
1
41
1
41
1
41
1
41
1
41
1
41
1
41
1
41
1
41
1
41
1
41
1
41
1
41
1
41
1
41
1
41
1
41
1
41
1
41
1
41
1
41
1
41
1
41
1
41
1
41
1
10
114.88323465030938
20
0
30
0
10
114.26106968935903
20
3.3442459280848427
30
0
10
113.68484178769357
20
9.7348182949537012
30
0
10
114.8239224297317
20
18.426902682938994
30
0
10
120.10026797390844
20
28.262673365083163
30
0
10
131.48347315394784
20
37.881725327563075
30
0
10
145.94122918101593
20
45.23181436232047
30
0
10
161.72203679315558
20
50.869050675989584
30
0
10
178.17466315086565
20
55.505626434216559
30
0
10
194.14503029010444
20
59.969463844634731
30
0
10
207.49959060215159
20
65.015166153032254
30
0
10
216.19713289169798
20
71.148463483554892
30
0
10
218.68104478164065
20
78.474237867147465
30
0
10
214.72014419513047
20
86.464375162664297
30
0
10
205.48252797968885
20
94.014026379504529
30
0
10
192.71921576860251
20
99.920004515347017
30
0
10
178.19325996677904
20
103.23119773827565
30
0
10
162.92413971152828
20
103.70971198906723
30
0
10
147.29003192946149
20
101.71319904976974
30
0
10
131.26568750435436
20
97.982025469261657
30
0
10
114.61740160059631
20
93.456711130836453
30
0
10
97.108088907967442
20
89.088740639414368
30
0
10
78.716071223810488
20
85.640453610010468
30
0
10
59.793829633994633
20
83.530983968178006
30
0
10
40.902486593416427
20
82.929998735138227
30
0
10
22.6881615541933
20
83.819276198613608
30
0
10
5.7431155304853228
20
86.066102433764016
30
0
10
-9.5288002128000056
20
89.492591815959898
30
0
10
-23.043598301036468
20
93.944111925974241
30
0
10
-35.184073925635907
20
99.365121661949331
30
0
10
-46.630562570386822
20
105.71312569072805
30
0
10
-58.170925133180155
20
112.86131321127142
30
0
10
-70.520568009866452
20
120.50744530162119
30
0
10
-84.1328250452801
20
128.07490731773024
30
0
10
-99.028592498756737
20
134.63141010983892
30
0
10
-114.92101944890473
20
139.10226926449388
30
0
10
-131.32241236769997
20
140.46173605727969
30
0
10
-147.6615233031512
20
137.94488946759026
30
0
10
-163.38741705804875
20
131.22295874570773
30
0
10
-178.10121856300216
20
120.66474857340042
30
0
10
-191.58126272184447
20
107.25448802295047
30
0
10
-203.72332100366447
20
92.200775235811548
30
0
10
-214.50704204557937
20
76.691466069872646
30
0
10
-223.94794008328378
20
61.464343529698596
30
0
10
-232.06434835227725
20
46.743915284655259
30
0
10
-238.81672509829926
20
31.318290227905781
30
0
10
-244.13197086305573
20
14.452532888770973
30
0
10
-247.9334593904683
20
-3.7479550632669909
30
0
10
-250.14331102733124
20
-22.795232107857338
30
0
10
-250.69607350105247
20
-41.928260020514585
30
0
10
-249.54771304542908
20
-60.375887267911772
30
0
10
-246.6862027490331
20
-77.543819526968477
30
0
10
-242.14264650058712
20
-93.260661199700053
30
0
10
-235.98670522125443
20
-107.66094051985398
30
0
10
-228.32001919205686
20
-121.03540521068371
30
0
10
-219.27038205270014
20
-133.68768910298894
30
0
10
-208.98565315234828
20
-145.79983204288646
30
0
10
-197.62775093229584
20
-157.26631956335427
30
0
10
-185.36681758302936
20
-167.63165741373771
30
0
10
-172.37590815088114
20
-176.27423043560827
30
0
10
-158.82559395439532
20
-182.54091647863063
30
0
10
-144.878563703281
20
-185.90165191794026
30
0
10
-130.68431036298455
20
-186.0945877963739
30
0
10
-116.373547249795
20
-183.27815319330352
30
0
10
-102.06515070600389
20
-177.92797017101964
30
0
10
-87.872525420434272
20
-170.73317960162402
30
0
10
-73.911571986482102
20
-162.4902806786433
30
0
10
-60.304792748399514
20
-154.00476820895102
30
0
10
-47.195162451607459
20
-145.97266166616868
30
0
10
-34.709660930653342
20
-138.96619851538293
30
0
10
-22.904599365499333
20
-133.45687346675192
30
0
10
-11.713928197137417
20
-129.83268236240596
30
0
10
-0.90267977052510684
20
-128.40329371502941
30
0
10
9.9997536155100093
20
-129.44771785866544
30
0
10
21.550134216979234
20
-132.91314425775846
30
0
10
34.158158049054506
20
-138.06533947125598
30
0
10
47.961473519890241
20
-143.12930389934189
30
0
10
62.501029400444388
20
-144.90337637791927
30
0
10
75.445569181258051
20
-142.79667603845624
30
0
10
84.240745519824642
20
-137.28443430963753
30
0
10
86.974850191249544
20
-129.54169008142927
30
0
10
83.869320955263603
20
-120.49548597967532
30
0
10
77.101067311486105
20
-110.66637145612482
30
0
10
69.618640885591404
20
-100.33427646826384
30
0
10
64.260811488616682
20
-89.617668861316758
30
0
10
62.729736234991009
20
-78.589259038755415
30
0
10
65.244838100926216
20
-69.545743178563256
30
0
10
69.361085792603177
20
-62.644451833890642
30
0
10
73.096103959941388
20
-57.990853901977715
30
0
10
75.211326281857183
20
-55.65087146130093
30
0
0
SPLINE
5
118
100
AcDbEntity
8
0
100
AcDbSpline
70
4
71
5
72
26
73
20
74
0
42
0.000000001
43
0.0000000001
44
0.0000000001
40
0
40
0
40
0
40
0
40
0
40
0
40
0.066666666666666666
40
0.13333333333333333
40
0.20000000000000001
40
0.26666666666666666
40
0.33333333333333331
40
0.39999999999999997
40
0.46666666666666662
40
0.53333333333333333
40
0.59999999999999998
40
0.66666666666666663
40
0.73333333333333328
40
0.79999999999999993
40
0.86666666666666659
40
0.93333333333333324
40
1
40
1
40
1
40
1
40
1
40
1
41
1
41
1
41
1
41
1
41
1
41
1
41
1
41
1
41
1
41
1
41
1
41
1
41
1
41
1
41
1
41
1
41
1
41
1
41
1
41
1
10
-81.484306223717653
20
-97.268869154720193
30
0
10
-79.167763372443446
20
-96.392335437666276
30
0
10
-74.522381324130919
20
-94.671765340879716
30
0
10
-68.118107878951648
20
-92.401923949621874
30
0
10
-61.921622204403384
20
-90.454131845714002
30
0
10
-57.25326645943386
20
-89.661708858733022
30
0
10
-53.164808709147039
20
-89.787365417544891
30
0
10
-47.273867027673504
20
-90.128945232060417
30
0
10
-40.009917423917621
20
-90.897604718748539
30
0
10
-31.814588249477168
20
-92.275826300010252
30
0
10
-23.191649978446133
20
-94.437884238832495
30
0
10
-14.619785922135355
20
-97.517551719977746
30
0
10
-6.5041429453299271
20
-101.58945310473555
30
0
10
0.90499249351984123
20
-106.62994837143087
30
0
10
7.5269599659754221
20
-112.5178529755959
30
0
10
13.380830913665477
20
-119.08924189453913
30
0
10
17.509175757688517
20
-124.75788027540256
30
0
10
20.329542701478594
20
-129.18115353543769
30
0
10
22.092762703490877
20
-132.19865942161906
30
0
10
22.945115202164928
20
-133.72457728610757
30
0
0
SPLINE
5
119
100
AcDbEntity
8
0
100
AcDbSpline
70
4
71
3
72
31
73
27
74
0
42
0.000000001
43
0.0000000001
44
0.0000000001
40
-92.510451271263193
40
-92.510451271263193
40
-92.510451271263193
40
-92.510451271263193
40
-89.696995390905059
40
-89.696995390905059
40
-82.520226447418011
40
-82.520226447418011
40
-77.625148207770266
40
-77.625148207770266
40
-75.221276497031567
40
-75.221276497031567
40
-70.738577661509538
40
-70.738577661509538
40
-64.482309657112211
40
-64.482309657112211
40
-54.418487397300098
40
-54.418487397300098
40
-50.832435911985883
40
-50.832435911985883
40
-48.446888663213215
40
-48.446888663213215
40
-47.246384426671646
40
-47.246384426671646
40
-47.246384426671646
40
-41.688989985291727
40
-41.688989985291727
40
-37.973065357477495
40
-37.973065357477495
40
-37.973065357477495
40
-37.973065357477495
41
1
41
1
41
1
41
1
41
1
41
1
41
1
41
1
41
1
41
1
41
1
41
1
41
1
41
1
41
1
41
1
41
1
41
1
41
1
41
1
41
1
41
1
41
1
41
1
41
1
41
1
41
1
10
-221.75944523301757
20
-129.86530406385401
30
0
10
-220.94080324108472
20
-130.07898874392799
30
0
10
-220.04658015016184
20
-130.30101861548533
30
0
10
-216.60250507697907
20
-131.09247064261888
30
0
10
-213.63453282737279
20
-131.66086997750762
30
0
10
-207.82184668884085
20
-132.41944631701006
30
0
10
-205.23779426325009
20
-132.6740181868785
30
0
10
-201.04676589420038
20
-132.92188422694352
30
0
10
-199.61178634740978
20
-132.98217117838323
30
0
10
-195.34418558875939
20
-133.08031033635532
30
0
10
-192.06323420351285
20
-133.06121111256647
30
0
10
-183.21939031139053
20
-132.57432888348222
30
0
10
-177.26525937123512
20
-131.92386517756876
30
0
10
-160.31353354200854
20
-128.52708660984862
30
0
10
-150.11369153797284
20
-125.15107626901178
30
0
10
-135.70639648204113
20
-119.57556464748448
30
0
10
-131.8663734447573
20
-118.01836540191148
30
0
10
-125.33293105523528
20
-115.30455658754246
30
0
10
-122.68584319946305
20
-114.18877447982786
30
0
10
-118.63700530582094
20
-112.47506118245369
30
0
10
-117.26022039729398
20
-111.89114287469266
30
0
10
-115.86479225456731
20
-111.29952795736247
30
0
10
-109.40505278203106
20
-108.56081421281191
30
0
10
-102.54289699390789
20
-105.66419456057439
30
0
10
-90.894529431837498
20
-100.92092200476408
30
0
10
-86.17552723931469
20
-99.043933834426355
30
0
10
-81.484306223717653
20
-97.268869154720193
30
0
0
CIRCLE
5
120
100
AcDbEntity
8
0
100
AcDbCircle
10
-91.010991885014434
20
-110.67113177387699
30
0
40
9.1649999999999903
210
0
220
0
230
1
0
CIRCLE
5
121
100
AcDbEntity
8
0
100
AcDbCircle
10
5.4565000798797403
20
-121.98778479092357
30
0
40
9.1649999999999938
210
0
220
0
230
1
0
CIRCLE
5
122
100
AcDbEntity
8
0
100
AcDbCircle
10
-94.310227441689847
20
-162.44785357817105
30
0
40
9.1650000000000098
210
0
220
0
230
1
0
CIRCLE
5
123
100
AcDbEntity
8
0
100
AcDbCircle
10
-193.85308509990074
20
-143.63849935326468
30
0
40
9.1649999999999903
210
0
220
0
230
1
0
SPLINE
5
124
100
AcDbEntity
8
0
100
AcDbSpline
70
0
71
3
72
35
73
31
74
0
42
0.000000001
43
0.0000000001
44
0.0000000001
40
0.099776147810564195
40
0.099776147810564195
40
0.099776147810564195
40
0.099776147810564195
40
0.12255453172149944
40
0.12255453172149944
40
0.12255453172149944
40
0.21657027005445328
40
0.21657027005445328
40
0.21657027005445328
40
0.31449898629764661
40
0.31449898629764661
40
0.31449898629764661
40
0.39861134609430593
40
0.39861134609430593
40
0.39861134609430593
40
0.49780834935799306
40
0.49780834935799306
40
0.49780834935799306
40
0.58103233323958448
40
0.58103233323958448
40
0.58103233323958448
40
0.69216847945423554
40
0.69216847945423554
40
0.69216847945423554
40
0.79928156283083873
40
0.79928156283083873
40
0.79928156283083873
40
0.92519445422203384
40
0.92519445422203384
40
0.92519445422203384
40
0.95142444969733964
40
0.95142444969733964
40
0.95142444969733964
40
0.95142444969733964
10
5.8846176351427211
20
-121.82967599123094
30
0
10
4.2515797729038951
20
-121.7028975793197
30
0
10
2.5966602193009614
20
-121.63684793801795
30
0
10
0.92066312499785596
20
-121.63442955169447
30
0
10
-5.9968646891306481
20
-121.62444787886528
30
0
10
-13.276944634315043
20
-122.72928695631953
30
0
10
-20.699719412468063
20
-125.06687937076536
30
0
10
-28.431433462434626
20
-127.50176344768241
30
0
10
-36.287482251146457
20
-131.25967510614123
30
0
10
-44.493256746782336
20
-135.87622775743557
30
0
10
-51.541312549669968
20
-139.84145014084328
30
0
10
-58.897647511491861
20
-144.43975805045957
30
0
10
-66.484849686103701
20
-149.13645918368255
30
0
10
-75.432734642567794
20
-154.67546294920749
30
0
10
-84.659629045636393
20
-160.31553807846723
30
0
10
-93.539601211855953
20
-164.99203110237482
30
0
10
-100.989691800439
20
-168.91550023187557
30
0
10
-108.16636552788425
20
-172.14168961947902
30
0
10
-114.95895927663491
20
-174.3662293275614
30
0
10
-124.02969413969954
20
-177.3368485977166
30
0
10
-132.41643311272065
20
-178.56366524877447
30
0
10
-140.73982969277455
20
-177.9784162882064
30
0
10
-148.76192423377017
20
-177.41435299426854
30
0
10
-156.79490880555946
20
-175.16927260587647
30
0
10
-165.21017246974441
20
-170.92525902207734
30
0
10
-175.10242975871944
20
-165.93636313191962
30
0
10
-185.48787621508453
20
-158.13679769879531
30
0
10
-196.27355463646552
20
-147.40147094520415
30
0
10
-198.5204119126754
20
-145.16510285722364
30
0
10
-200.78403637993608
20
-142.80289805974166
30
0
10
-203.06305788706106
20
-140.3155910631433
30
0
0
SPLINE
5
125
100
AcDbEntity
8
0
100
AcDbSpline
70
0
71
3
72
35
73
31
74
0
42
0.000000001
43
0.0000000001
44
0.0000000001
40
-77.730731785979003
40
-77.730731785979003
40
-77.730731785979003
40
-77.730731785979003
40
-77.625148207770266
40
-77.625148207770266
40
-77.625148207770266
40
-75.221276497031567
40
-75.221276497031567
40
-75.221276497031567
40
-70.738577661509538
40
-70.738577661509538
40
-70.738577661509538
40
-64.482309657112211
40
-64.482309657112211
40
-64.482309657112211
40
-54.418487397300098
40
-54.418487397300098
40
-54.418487397300098
40
-50.832435911985883
40
-50.832435911985883
40
-50.832435911985883
40
-48.446888663213215
40
-48.446888663213215
40
-48.446888663213215
40
-47.246384426671646
40
-47.246384426671646
40
-47.246384426671646
40
-41.688989985291727
40
-41.688989985291727
40
-41.688989985291727
40
-37.973065357477495
40
-37.973065357477495
40
-37.973065357477495
40
-37.973065357477495
10
-203.06305788706084
20
-140.31559106314322
30
0
10
-202.99876268337243
20
-140.31949398920932
30
0
10
-202.93436051225848
20
-140.32335323405977
30
0
10
-202.86985129208665
20
-140.32716844205734
30
0
10
-201.40098121731273
20
-140.41404044022681
30
0
10
-199.87572992007799
20
-140.47808429968993
30
0
10
-198.2945363880911
20
-140.51444594891532
30
0
10
-195.34656801974666
20
-140.58223840415172
30
0
10
-191.86874406196583
20
-140.56186092253674
30
0
10
-187.95932955112681
20
-140.3466350010178
30
0
10
-182.49539681990785
20
-140.04582782031758
30
0
10
-176.18526917103193
20
-139.35654526152038
30
0
10
-169.29330092224774
20
-137.97553601958725
30
0
10
-158.23931667033887
20
-135.76054403746923
30
0
10
-147.62497704878922
20
-132.22998822079552
30
0
10
-136.7846153135944
20
-128.03485217329339
30
0
10
-132.92335080435819
20
-126.54057270851808
30
0
10
-129.02738025363749
20
-124.96039745155046
30
0
10
-125.06595208380703
20
-123.31493124188177
30
0
10
-122.43143062021011
20
-122.22062488035023
30
0
10
-119.76917412796114
20
-121.09841228231944
30
0
10
-117.06906123803903
20
-119.9555610530477
30
0
10
-115.71023140117774
20
-119.38042200785289
30
0
10
-114.3321305119275
20
-118.79594482843373
30
0
10
-112.93728259190614
20
-118.20457590614788
30
0
10
-106.48521764763915
20
-115.46911590521086
30
0
10
-99.656157273720879
20
-112.58667138039377
30
0
10
-92.73364275041375
20
-109.76778942284632
30
0
10
-88.103974449953768
20
-107.88256572303948
30
0
10
-83.44161488619082
20
-106.02841568981617
30
0
10
-78.830104925469598
20
-104.28351208707093
30
0
0
SPLINE
5
126
100
AcDbEntity
8
0
100
AcDbSpline
70
0
71
3
72
29
73
25
74
0
42
0.000000001
43
0.0000000001
44
0.0000000001
40
0
40
0
40
0
40
0
40
0.077051969817352642
40
0.077051969817352642
40
0.077051969817352642
40
0.15720157533655024
40
0.15720157533655024
40
0.15720157533655024
40
0.26255137841948145
40
0.26255137841948145
40
0.26255137841948145
40
0.34949065276710312
40
0.34949065276710312
40
0.34949065276710312
40
0.47734969518621073
40
0.47734969518621073
40
0.47734969518621073
40
0.60801227138965808
40
0.60801227138965808
40
0.60801227138965808
40
0.73125617019912714
40
0.73125617019912714
40
0.73125617019912714
40
0.84540092178992088
40
0.84540092178992088
40
0.84540092178992088
40
0.84540092178992088
10
-78.830104925469584
20
-104.28351208707093
30
0
10
-75.231225715825104
20
-102.92176780976455
30
0
10
-71.676556817775847
20
-101.63122799999584
30
0
10
-68.600934738599079
20
-100.60304023671122
30
0
10
-65.401666803509414
20
-99.533517370231976
30
0
10
-62.711681731684472
20
-98.747016970799777
30
0
10
-60.508983855699469
20
-98.245216983532856
30
0
10
-57.613725844346824
20
-97.585643807805553
30
0
10
-55.566663917163375
20
-97.377284741835695
30
0
10
-53.195995900074294
20
-97.383995531019494
30
0
10
-51.239616760356355
20
-97.389533568347204
30
0
10
-49.0117239373443
20
-97.561959897941676
30
0
10
-46.3631674148603
20
-97.881816189505855
30
0
10
-42.468012971729728
20
-98.352219461881901
30
0
10
-37.709248215867881
20
-99.124698016957154
30
0
10
-32.59956921602268
20
-100.27649175848302
30
0
10
-27.377851541147816
20
-101.45354059816903
30
0
10
-21.845277303084231
20
-103.04796068706804
30
0
10
-16.771393813755388
20
-105.16877546414452
30
0
10
-11.98559208307298
20
-107.16917595657523
30
0
10
-7.6287378526736127
20
-109.63212146248274
30
0
10
-3.7703231631543552
20
-112.55818199771271
30
0
10
-0.1967768008284089
20
-115.26821029249908
30
0
10
2.9823538065030375
20
-118.37975030151809
30
0
10
5.8846176351427193
20
-121.8296759912309
30
0
0
SPLINE
5
127
100
AcDbEntity
8
0
100
AcDbSpline
70
4
71
5
72
12
73
6
74
0
42
0.000000001
43
0.0000000001
44
0.0000000001
40
0.72181340758552681
40
0.72181340758552681
40
0.72181340758552681
40
0.72181340758552681
40
0.72181340758552681
40
0.72181340758552681
40
0.72181456889950479
40
0.72181456889950479
40
0.72181456889950479
40
0.72181456889950479
40
0.72181456889950479
40
0.72181456889950479
41
1
41
1
41
1
41
1
41
1
41
1
10
-148.79720479830027
20
-184.48547507868327
30
0
10
-148.79726382657674
20
-184.48546392879081
30
0
10
-148.7973228548542
20
-184.48545277882891
30
0
10
-148.79738188313274
20
-184.48544162879762
30
0
10
-148.79744091141231
20
-184.48543047869691
30
0
10
-148.79749993969295
20
-184.48541932852677
30
0
0
SPLINE
5
128
100
AcDbEntity
8
0
100
AcDbSpline
70
4
71
2
72
6
73
3
74
0
42
0.000000001
43
0.0000000001
44
0.0000000001
40
0
40
0
40
0
40
1
40
1
40
1
41
1
41
1
41
1
10
-50.337459672924687
20
-114.02626896976673
30
0
10
-74.792171016280932
20
-144.56150396020809
30
0
10
-148.75056079961502
20
-152.56503466245542
30
0
0
ENDSEC
0
SECTION
2
OBJECTS
0
DICTIONARY
5
C
100
AcDbDictionary
3
ACAD_GROUP
350
D
3
ACAD_MLINESTYLE
350
17
0
DICTIONARY
5
D
100
AcDbDictionary
0
DICTIONARY
5
1A
330
C
100
AcDbDictionary
0
DICTIONARY
5
17
100
AcDbDictionary
0
ENDSEC
0
EOF
